<svg height="512" viewBox="0 0 512 512" width="512" xmlns="http://www.w3.org/2000/svg"><path d="m281.1554 248.03682a68.31745 68.310912 0 0 0 28.96139-16.22382c19.80361-17.99355 29.70388-41.9537 29.70388-71.87698a117.70966 117.69839 0 0 0 -8.65195-45.64664 84.382038 84.373965 0 0 0 -24.70979-33.82228 78.394491 78.386985 0 0 0 -33.56475-16.467103h-67.72504v188.417963h29.70392c20.03854.0128 35.46585-1.44813 46.28279-4.3807zm68.33935-184.017582a104.474 104.464 0 0 1 20.68219 12.529589c28.71464 21.830411 43.07125 50.943873 43.07125 87.340863 0 37.00339-14.56143 64.09299-43.68424 81.27056-15.16131 8.89745-33.55994 14.25597-55.19425 16.07509-6.8808.60638-23.45971.90869-49.73588.90869h-59.40908v108.87378c0 20.61764 1.1634 35.93281 3.48982 45.9441a51.32811 51.323197 0 0 0 12.88432 24.70742 53.281079 53.275981 0 0 0 7.33363 6.3298h219.06749v-383.979892h-98.5057zm-220.75727 20.419027a49.650794 49.646039 0 0 0 -20.01319-18.043397 55.334247 55.328956 0 0 0 -5.73664-2.376053h-38.987647v383.981185h51.054657a53.251111 53.246016 0 0 0 7.33363-6.32981 49.087893 49.083199 0 0 0 12.99502-24.55993c2.22754-9.90063 3.34109-25.26388 3.34109-46.09289v-223.50113a269.16148 269.13573 0 0 0 -2.28355-40.1888 62.108937 62.102992 0 0 0 -7.70292-22.889594z" stroke-width=".067527"/></svg>